<?xml version="1.0" encoding="UTF-8"?>
<svg xmlns="http://www.w3.org/2000/svg"
     width="3000" height="2000"
     viewBox="0 0 3400 2000"
fill="none" stroke="black" font-family="Parchment MF" font-size="470" stroke-width="50" stroke-linecap="round">
<defs>
<filter id="whiteOutlineEffect" color-interpolation-filters="sRGB">
  <feMorphology in="SourceAlpha" result="MORPH" operator="dilate" radius="3" />
  <feColorMatrix in="MORPH" result="WHITENED" type="matrix" values="-1 0 0 0 1, 0 -1 0 0 1, 0 0 -1 0 1, 0 0 0 1 0"/>
  <feMerge>
    <feMergeNode in="WHITENED"/>
    <feMergeNode in="SourceGraphic"/>
  </feMerge>
</filter>
</defs>

    <path id="hammer" stroke-dasharray="6000" stroke="rgba(50,50,50,0.25)" stroke-dashoffset="6000" 
 d="
    M
        1300,400
    L
        1300,1200
    C
        1300,1200
        1300,1260
        1225,1280
    L
        1025,1280
    C
        1025,1280
        975,1290
        975,1350
    L
        975,1500
    C
        975,1500
        975,1550
        1000,1570
    C
        1000,1570
        1200,1700
        1600,1800
    C
        1600,1800
        2000,1700
        2200,1570
    C
        2200,1570
        2225,1560
        2225,1500
    L
        2225,1350
    C
        2225,1350
        2225,1290
        2175,1280
    L
        1950,1280
    C
        1950,1280
        1875,1260
        1875,1200
    L
        1875,400
    C
        1875,400
        1875,150
        1600,150
    C
        1600,150
        1300,150
        1300,400


" >
</path>
    <path id="arrow_1" stroke="#d46e37" stroke-dasharray="5000" stroke-dashoffset="5000" d="
    M
        1000,1200
    L
        600,1200
        400,800
        600,400
        1000,400
" >
</path>
    <path id="arrow_2" stroke="#d46e37" stroke-dasharray="5000" stroke-dashoffset="5000" d="
    M
        2200,1200
    L
        2600,1200
        2800,800
        2600,400
        2200,400
" >
</path>
<g id="text" opacity="0"> 
    <text x="1120" y="700" stroke-width="1" fill="black"  filter="url(#whiteOutlineEffect)">
        HELGA
    </text>
    <text x="730" y="950" stroke-width="1" fill="black"  filter="url(#whiteOutlineEffect)">
        HOGENBEJN
    </text>
    <text class="subtext" x="750" y="1100" stroke-width="1" fill="black" font-size="150" letter-spacing="47" filter="url(#whiteOutlineEffect)">
        HANDMADE HISTORY
    </text>

</g>

<animate id="hammer_anim"  href="#hammer"  attributeName="stroke-dashoffset" from="6000" to="0" begin="0s" values="6000;4000;2000;0" dur="3s" restart="never" fill="freeze" keytimes="0; 0.15; 0.3; 0.45; 0.6; 0.75; 0.9; 1"
  keysplines="
    .42 0 1 1;
    0 0 .59 1;
    .42 0 1 1;
    0 0 .59 1;
    .42 0 1 1;
    0 0 .59 1;
    .42 0 1 1;
    0 0 .59 1;"/> 
<animate id="arrow_1_anim" href="#arrow_1" attributeName="stroke-dashoffset" from="5000" to="0" begin="1s" values="5000;3250;1250;0" dur="3s" restart="never" fill="freeze" keytimes="0; 0.15; 0.3; 0.45; 0.6; 0.75; 0.9; 1"
  keysplines="
    .42 0 1 1;
    0 0 .59 1;
    .42 0 1 1;
    0 0 .59 1;
    .42 0 1 1;
    0 0 .59 1;
    .42 0 1 1;
    0 0 .59 1;"/> 
<animate id="arrow_2_anim" href="#arrow_2" attributeName="stroke-dashoffset" from="5000" to="0" begin="1s" values="5000;3250;1250;0" dur="3s" restart="never" fill="freeze" keytimes="0; 0.15; 0.3; 0.45; 0.6; 0.75; 0.9; 1"
  keysplines="
    .42 0 1 1;
    0 0 .59 1;
    .42 0 1 1;
    0 0 .59 1;
    .42 0 1 1;
    0 0 .59 1;
    .42 0 1 1;
    0 0 .59 1;"/> 
<animate id="text_anim"    href="#text"    attributeName="opacity"                              begin="2s" values="0;1" 	     dur="2s" restart="never" fill="freeze"/> 

</svg>
